<?xml version="1.0" encoding="utf-8"?>
<!-- Generator: Adobe Illustrator 21.1.0, SVG Export Plug-In . SVG Version: 6.00 Build 0)  -->
<svg version="1.1" id="Layer_1" xmlns="http://www.w3.org/2000/svg" xmlns:xlink="http://www.w3.org/1999/xlink" x="0px" y="0px"
	 viewBox="0 0 100 100" style="enable-background:new 0 0 100 100;" xml:space="preserve">
<style type="text/css">
	.st0{fill:#FFFFFF;}
</style>
<g>
	<path class="st0" d="M68.7,20.9H13.4c-2.6,0-4.6,2.1-4.6,4.6v33.2c0,2.6,2.1,4.6,4.6,4.6H17v12.4c0,0.8,0.5,1.5,1.2,1.8
		c0.2,0.1,0.5,0.1,0.7,0.1c0.5,0,1-0.2,1.4-0.6L34,63.4h2.8c1.1,0,1.9-0.9,1.9-1.9s-0.9-1.9-1.9-1.9c0,0-3.7,0-3.7,0
		c-0.5,0-0.9,0.2-1.2,0.6l-11,11c0,0,0-9.7,0-9.8c-0.1-1-0.9-1.8-1.9-1.8h-5.5c-0.4,0-0.8-0.3-0.8-0.8V25.6c0-0.4,0.3-0.8,0.8-0.8
		h55.3c0.4,0,0.8,0.3,0.8,0.8v12.7c0,1.1,0.9,1.9,1.9,1.9c1.1,0,1.9-0.9,1.9-1.9V25.6C73.4,23,71.3,20.9,68.7,20.9L68.7,20.9z
		 M68.7,20.9"/>
	<path class="st0" d="M86.6,44.7H47.9c-2.6,0-4.6,2.1-4.6,4.6V72c0,2.6,2.1,4.6,4.6,4.6h24.2l9.8,9.8c0.4,0.4,0.9,0.6,1.4,0.6
		c0.3,0,0.5,0,0.7-0.1c0.7-0.3,1.2-1,1.2-1.8v-8.4h1.3c2.6,0,4.6-2.1,4.6-4.6V49.4C91.2,46.8,89.2,44.7,86.6,44.7L86.6,44.7z
		 M87.3,72c0,0.4-0.3,0.8-0.8,0.8h-3.3c-1,0-1.9,0.8-1.9,1.8c0,0,0,5.8,0,5.8l-7.1-7.1c0,0,0,0,0,0c0,0-0.1-0.1-0.1-0.1
		c-0.3-0.3-0.8-0.5-1.3-0.5H47.9c-0.4,0-0.8-0.3-0.8-0.8V49.4c0-0.4,0.3-0.8,0.8-0.8h38.7c0.4,0,0.8,0.3,0.8,0.8V72z M87.3,72"/>
	<path class="st0" d="M67.2,58.8c-1.1,0-1.9,0.9-1.9,1.9c0,1.1,0.9,1.9,1.9,1.9c1.1,0,1.9-0.9,1.9-1.9
		C69.2,59.6,68.3,58.8,67.2,58.8L67.2,58.8z M67.2,58.8"/>
	<path class="st0" d="M58.8,33.8H23.4c-1.1,0-1.9,0.9-1.9,1.9c0,1.1,0.9,1.9,1.9,1.9h35.4c1.1,0,1.9-0.9,1.9-1.9
		C60.7,34.7,59.8,33.8,58.8,33.8L58.8,33.8z M58.8,33.8"/>
	<path class="st0" d="M36.8,46.7H23.4c-1.1,0-1.9,0.9-1.9,1.9c0,1.1,0.9,1.9,1.9,1.9h13.4c1.1,0,1.9-0.9,1.9-1.9
		C38.7,47.5,37.9,46.7,36.8,46.7L36.8,46.7z M36.8,46.7"/>
	<path class="st0" d="M58.2,58.8c-1.1,0-1.9,0.9-1.9,1.9c0,1.1,0.9,1.9,1.9,1.9c1.1,0,1.9-0.9,1.9-1.9
		C60.1,59.6,59.3,58.8,58.2,58.8L58.2,58.8z M58.2,58.8"/>
	<path class="st0" d="M76.3,58.8c-1.1,0-1.9,0.9-1.9,1.9c0,1.1,0.9,1.9,1.9,1.9c1.1,0,1.9-0.9,1.9-1.9
		C78.2,59.6,77.3,58.8,76.3,58.8L76.3,58.8z M76.3,58.8"/>
</g>
</svg>
