<?xml version="1.0" encoding="utf-8"?>
<!-- Generator: Adobe Illustrator 21.1.0, SVG Export Plug-In . SVG Version: 6.00 Build 0)  -->
<svg version="1.1" id="Layer_1" xmlns="http://www.w3.org/2000/svg" xmlns:xlink="http://www.w3.org/1999/xlink" x="0px" y="0px"
	 viewBox="0 0 100 100" style="enable-background:new 0 0 100 100;" xml:space="preserve">
<style type="text/css">
	.st0{fill:#FFFFFF;}
</style>
<g>
	<path class="st0" d="M33.3,48.3c0-0.9-0.7-1.7-1.7-1.7c-0.9,0-1.7,0.7-1.7,1.7c0,4.4,4.8,10.4,5.4,11.1c0.3,0.4,0.8,0.6,1.3,0.6
		c0.4,0,0.7-0.1,1.1-0.4c0.7-0.6,0.8-1.6,0.2-2.3C36.2,55.1,33.3,50.7,33.3,48.3L33.3,48.3z M33.3,48.3"/>
	<path class="st0" d="M68.3,46.7c-0.9,0-1.7,0.7-1.7,1.7c0,2.4-2.8,6.8-4.6,8.9c-0.6,0.7-0.5,1.8,0.2,2.3c0.3,0.3,0.7,0.4,1.1,0.4
		c0.5,0,1-0.2,1.3-0.6c0.5-0.7,5.4-6.7,5.4-11.1C70,47.4,69.3,46.7,68.3,46.7L68.3,46.7z M68.3,46.7"/>
	<path class="st0" d="M50,46.7c-0.9,0-1.7,0.7-1.7,1.7v10c0,0.9,0.7,1.7,1.7,1.7c0.9,0,1.7-0.7,1.7-1.7v-10
		C51.7,47.4,50.9,46.7,50,46.7L50,46.7z M50,46.7"/>
	<path class="st0" d="M68.3,20c-1,0-2.1,0.1-3.2,0.3c-3.7-4.3-9.1-7-15.2-7c-6.1,0-11.5,2.7-15.2,7c-1.1-0.2-2.2-0.3-3.2-0.3
		c-10.1,0-18.3,8.2-18.3,18.3c0,6.9,3.9,13.2,10,16.3l0,25.2c0,1.8,0.7,3.5,2,4.8c1.3,1.3,3,2,4.8,2h39.7c3.7,0,6.8-3,6.8-6.8V54.6
		c6.1-3.1,10-9.4,10-16.3C86.7,28.2,78.4,20,68.3,20L68.3,20z M73.3,79.9c0,1.9-1.6,3.5-3.5,3.5H30.1c-0.9,0-1.8-0.4-2.5-1
		c-0.7-0.7-1-1.5-1-2.5l0-6.5h46.6V79.9z M74.4,52.1c-0.1,0-0.2,0.1-0.2,0.1c-0.2,0.1-0.4,0.3-0.5,0.5c-0.1,0.2-0.2,0.4-0.3,0.7
		c0,0.1,0,0.2,0,0.3V70H26.7l0-16.3c0-0.1,0-0.2,0-0.3c0-0.3-0.1-0.5-0.3-0.7c-0.1-0.2-0.3-0.4-0.5-0.5c-0.1-0.1-0.2-0.1-0.3-0.1
		c-5.5-2.4-9-7.8-9-13.7c0-8.3,6.7-15,15-15c0.3,0,0.7,0,1,0.1C31,26.3,30,29.7,30,33.3c0,0.9,0.7,1.7,1.7,1.7
		c0.9,0,1.7-0.7,1.7-1.7c0-9.2,7.5-16.7,16.7-16.7c9.2,0,16.7,7.5,16.7,16.7c0,0.9,0.7,1.7,1.7,1.7c0.9,0,1.7-0.7,1.7-1.7
		c0-3.6-1-7-2.7-9.9c0.3,0,0.7-0.1,1-0.1c8.3,0,15,6.7,15,15C83.3,44.3,79.8,49.7,74.4,52.1L74.4,52.1z M74.4,52.1"/>
</g>
</svg>
