<?xml version="1.0" encoding="utf-8"?>
<!-- Generator: Adobe Illustrator 21.1.0, SVG Export Plug-In . SVG Version: 6.00 Build 0)  -->
<svg version="1.1" id="Layer_1" xmlns="http://www.w3.org/2000/svg" xmlns:xlink="http://www.w3.org/1999/xlink" x="0px" y="0px"
	 viewBox="0 0 100 100" style="enable-background:new 0 0 100 100;" xml:space="preserve">
<style type="text/css">
	.st0{fill:#FFFFFF;}
</style>
<g>
	<g>
		<path class="st0" d="M66.6,53.5H55.9c-2.7,0-5,2.2-5,5v8.2c0,2.7,2.2,5,5,5h10.7c2.7,0,5-2.2,5-5v-8.2
			C71.6,55.7,69.4,53.5,66.6,53.5z M68.5,66.6c0,1-0.8,1.8-1.8,1.8H55.9c-1,0-1.8-0.8-1.8-1.8v-8.2c0-1,0.8-1.8,1.8-1.8h10.7
			c1,0,1.8,0.8,1.8,1.8V66.6z"/>
	</g>
	<g>
		<path class="st0" d="M88.9,37.3L77.2,16.6c-0.3-0.5-0.8-0.8-1.4-0.8H24.2c-0.6,0-1.1,0.3-1.4,0.8L11,37.3
			c-0.1,0.2-0.2,0.5-0.2,0.8c0,4.3,2.6,8.3,6.6,10l0.2,0.1v34.3c0,0.9,0.7,1.6,1.6,1.6h61.6c0.9,0,1.6-0.7,1.6-1.6V48.7
			c0-0.1,0-0.1,0-0.1l-0.1-0.3l0.3-0.1c4-1.8,6.6-5.7,6.6-10.1C89.2,37.8,89.1,37.6,88.9,37.3z M25.1,19h49.9l0.1,0.2l9.5,16.7H15.5
			L25.1,19z M67.2,39l-0.1,0.4c-0.7,3.7-3.9,6.5-7.7,6.5c-3.8,0-7-2.7-7.7-6.5L51.6,39H67.2z M48.4,39l-0.1,0.4
			c-0.7,3.7-3.9,6.5-7.7,6.5c-3.8,0-7-2.7-7.7-6.4L32.8,39H48.4z M14.1,39.5L14,39h15.6l-0.1,0.4c-0.7,3.7-3.9,6.5-7.7,6.5h0
			C18,45.9,14.8,43.2,14.1,39.5z M43.4,81H31.5V59.7c0-1.7,1.4-3.1,3.1-3.1h5.6c1.7,0,3.1,1.4,3.1,3.1V81z M79.2,81H46.5V59.7
			c0-3.5-2.8-6.3-6.3-6.3h-5.6c-3.5,0-6.3,2.8-6.3,6.3V81h-7.6V49l0.4,0c0.2,0,0.4,0,0.6,0c3.7,0,7-1.8,9.1-4.9l0.3-0.5l0.3,0.5
			c2,3,5.4,4.9,9.1,4.9c3.6,0,7-1.8,9.1-4.9l0.3-0.5l0.3,0.5c2,3,5.4,4.9,9.1,4.9s7-1.8,9.1-4.9l0.3-0.5l0.3,0.5
			c2,3,5.4,4.9,9.1,4.9c0.1,0,0.2,0,0.3,0s0.2,0,0.3,0h0.4V81z M85.9,39.5c-0.7,3.7-3.9,6.5-7.7,6.5c-3.8,0-7-2.7-7.7-6.5L70.4,39
			H86L85.9,39.5z"/>
	</g>
</g>
</svg>
