<?xml version="1.0" encoding="utf-8"?>
<!-- Generator: Adobe Illustrator 21.1.0, SVG Export Plug-In . SVG Version: 6.00 Build 0)  -->
<svg version="1.1" id="Layer_1" xmlns="http://www.w3.org/2000/svg" xmlns:xlink="http://www.w3.org/1999/xlink" x="0px" y="0px"
	 viewBox="0 0 100 100" style="enable-background:new 0 0 100 100;" xml:space="preserve">
<style type="text/css">
	.st0{fill:#FFFFFF;}
</style>
<g>
	<path class="st0" d="M83.4,20.5c-0.3-1-1.3-1.7-2.3-1.4l-23.9,5.7l-0.4-2.1c-0.4-1.5-1.3-2.8-2.6-3.7c-0.9-0.6-2-0.9-3.1-0.9
		c-0.4,0-0.9,0-1.3,0.2l-2.5,0.6c-1.5,0.4-2.8,1.3-3.7,2.6c-0.8,1.3-1.1,2.9-0.7,4.4l0.4,2.1l-23.9,5.7c-0.5,0.1-0.9,0.4-1.2,0.9
		c-0.3,0.4-0.4,0.9-0.2,1.4c0.2,0.8,1,1.5,1.8,1.5c0.2,0,0.3,0,0.4,0L82,22.7C83,22.5,83.6,21.5,83.4,20.5z M46.9,27.2l-0.4-2.1
		c-0.1-0.5,0-1.1,0.2-1.5c0.3-0.5,0.8-0.8,1.4-1l2.5-0.6c0.2-0.1,0.4-0.1,0.5-0.1c1,0,1.8,0.6,2.1,1.6l0.4,2.1L46.9,27.2z
		 M65.8,32.1c-4,0-7.2,3.2-7.2,7.2c0,1,0.8,1.9,1.9,1.9c1,0,1.9-0.8,1.9-1.9c0-1.9,1.5-3.5,3.5-3.5c1.9,0,3.5,1.6,3.5,3.5
		c0,1,0.8,1.9,1.9,1.9c1,0,1.9-0.8,1.9-1.9C72.9,35.3,69.7,32.1,65.8,32.1z M78,12.5c-0.4-0.4-0.8-0.5-1.3-0.5c-0.5,0-1,0.2-1.3,0.5
		L75,12.8c-0.4,0.4-0.5,0.8-0.5,1.3c0,0.5,0.2,1,0.5,1.3c0.8,0.7,1.8,0.7,2.7,0l0.3-0.3c0.4-0.4,0.6-0.8,0.6-1.3S78.3,12.9,78,12.5z
		 M85.8,52.5h-2.1v-6.8c0-1-0.8-1.9-1.9-1.9H18.2c-1,0-1.9,0.8-1.9,1.9v6.8h-2.1c-3.2,0-5.9,2.6-5.9,5.9V61c0,3.2,2.6,5.9,5.9,5.9
		h2.1v12.1c0,5,4.1,9.1,9.1,9.1h49.2c5,0,9.1-4.1,9.1-9.1V66.8h2.1c3.2,0,5.9-2.6,5.9-5.9v-2.6C91.7,55.1,89,52.5,85.8,52.5z
		 M16.4,63.2h-2.1c-1.2,0-2.1-1-2.1-2.1v-2.6c0-1.2,1-2.1,2.1-2.1h2.1V63.2z M79.9,78.9c0,2.9-2.4,5.3-5.3,5.3H25.4
		c-2.9,0-5.3-2.4-5.3-5.3V47.7h59.6V48h0.2V78.9z M87.9,60.9c0,1.2-1,2.1-2.1,2.1h-2.1v-6.8h2.1c1.2,0,2.1,1,2.1,2.1V60.9z
		 M82.1,27.1c-3.3,0-6,2.7-6,6c0,3.3,2.7,6,6,6c3.3,0,6-2.7,6-6C88.1,29.8,85.4,27.1,82.1,27.1z M82.1,35.3c-1.2,0-2.2-1-2.2-2.2
		c0-1.2,1-2.2,2.2-2.2c1.2,0,2.2,1,2.2,2.2C84.3,34.4,83.3,35.3,82.1,35.3z"/>
</g>
</svg>
