<?xml version="1.0" encoding="utf-8"?>
<!-- Generator: Adobe Illustrator 21.1.0, SVG Export Plug-In . SVG Version: 6.00 Build 0)  -->
<svg version="1.1" id="Layer_1" xmlns="http://www.w3.org/2000/svg" xmlns:xlink="http://www.w3.org/1999/xlink" x="0px" y="0px"
	 viewBox="0 0 100 100" style="enable-background:new 0 0 100 100;" xml:space="preserve">
<style type="text/css">
	.st0{fill:#FFFFFF;}
</style>
<g>
	<path class="st0" d="M79.3,40.5l-0.2,0L79,40.3c-3.8-9.8-12.1-17-22.4-19.2L56.2,21l0.2-0.4c0.5-1,0.8-2.1,0.8-3.2
		c0-4-3.2-7.2-7.2-7.2c-3.9,0-7.2,3.2-7.2,7.2c0,1.1,0.3,2.1,0.8,3.2l0.2,0.4l-0.5,0.1C33.1,23.3,24.8,30.5,21,40.3l-0.1,0.2l-0.2,0
		c-6,0.8-10.5,6-10.5,12c0,5.9,4.3,11,10.2,12l0.2,0l0.1,0.2l4.7,23.3c0.2,1,1.1,1.7,2.1,1.7h45.1c1,0,1.9-0.7,2.1-1.7l4.7-23.5
		l0.2,0c5.9-1,10.1-6,10.1-12C89.8,46.5,85.3,41.3,79.3,40.5z M50,14.5c1.6,0,2.9,1.3,2.9,2.9c0,1.6-1.3,2.9-2.9,2.9
		c-1.6,0-2.9-1.3-2.9-2.9C47.1,15.8,48.4,14.5,50,14.5z M29.2,85.5L25,64.7h13l2.1,20.8H29.2z M55.6,85.5H44.4l-2.1-20.8h15.3
		L55.6,85.5z M70.8,85.5H59.9L62,64.7h13L70.8,85.5z M77.6,60.4H22.4c-4.3,0-7.9-3.5-7.9-7.9c0-4.4,3.5-7.9,7.9-7.9c0,0,0.1,0,0.1,0
		c0.1,0,0.2,0,0.4-0.1l0.2,0c0.1,0,0.1,0,0.2-0.1c0.1,0,0.2-0.1,0.3-0.2l0.2-0.2c0.1,0,0.1-0.1,0.2-0.1c0.1-0.1,0.1-0.1,0.1-0.2
		l0.1-0.2c0.1-0.1,0.1-0.2,0.2-0.3l0.1-0.1C28.1,32,38.3,24.6,50,24.6c11.7,0,21.9,7.4,25.5,18.5l0.1,0.1c0.1,0.4,0.4,0.7,0.7,0.9
		c0.1,0,0.1,0.1,0.2,0.1c0.4,0.3,0.8,0.4,1.1,0.4c4.4,0,7.9,3.5,7.9,7.9C85.5,56.9,81.9,60.4,77.6,60.4z"/>
</g>
</svg>
