<?xml version="1.0" encoding="utf-8"?>
<!-- Generator: Adobe Illustrator 21.1.0, SVG Export Plug-In . SVG Version: 6.00 Build 0)  -->
<svg version="1.1" id="Layer_1" xmlns="http://www.w3.org/2000/svg" xmlns:xlink="http://www.w3.org/1999/xlink" x="0px" y="0px"
	 viewBox="0 0 100 100" style="enable-background:new 0 0 100 100;" xml:space="preserve">
<style type="text/css">
	.st0{fill:#FFFFFF;}
</style>
<g>
	<path class="st0" d="M52.9,15.2c0.9,0,1.7-0.7,1.7-1.7V4.8c0-0.9-0.7-1.7-1.7-1.7c-0.9,0-1.7,0.7-1.7,1.7v8.7
		C51.2,14.4,52,15.2,52.9,15.2L52.9,15.2z M52.9,15.2"/>
	<path class="st0" d="M44.7,16.4c0.3,0.3,0.7,0.5,1.2,0.5c0.4,0,0.8-0.2,1.2-0.5c0.6-0.6,0.6-1.7,0-2.3l-6.2-6.2
		c-0.6-0.6-1.7-0.6-2.3,0c-0.6,0.6-0.6,1.7,0,2.3L44.7,16.4z M44.7,16.4"/>
	<path class="st0" d="M59.8,16.9c0.4,0,0.8-0.2,1.2-0.5l6.2-6.2c0.6-0.6,0.6-1.7,0-2.3c-0.6-0.6-1.7-0.6-2.3,0l-6.2,6.2
		c-0.6,0.6-0.6,1.7,0,2.3C59,16.8,59.4,16.9,59.8,16.9L59.8,16.9z M59.8,16.9"/>
	<path class="st0" d="M43.8,42.5c0.4,0,0.9-0.2,1.2-0.5c0.3-0.3,0.5-0.7,0.5-1.2c0-0.4-0.2-0.9-0.5-1.2c-0.3-0.3-0.7-0.5-1.2-0.5
		c-0.4,0-0.9,0.2-1.2,0.5c-0.3,0.3-0.5,0.7-0.5,1.2c0,0.4,0.2,0.9,0.5,1.2C42.9,42.3,43.4,42.5,43.8,42.5L43.8,42.5z M43.8,42.5"/>
	<path class="st0" d="M84,90.7L75,86.5l-2.8-16c2.2-0.7,4.1-2.2,5.5-4.1c1.7-2.4,2.3-5.3,1.8-8.2l-6.5-37.3c-0.2-0.9-1-1.5-1.9-1.3
		l-18.3,3.2l-18.3-3.2c-0.9-0.2-1.8,0.4-1.9,1.3l-6.5,37.3c-0.9,5.4,2.3,10.6,7.3,12.3l-2.8,16l-9.1,4.3c-0.7,0.3-1,1-0.9,1.7
		c0.1,0.7,0.6,1.3,1.4,1.4l17.6,3c0.1,0,0.2,0,0.3,0c0,0,0,0,0,0c0.9,0,1.6-0.8,1.6-1.7c0-0.5-0.2-0.9-0.6-1.2l-7-7l2.8-16
		c0.1,0,0.2,0,0.2,0c5.4,0,9.9-3.8,10.8-9.1l5-29l5,29c0.9,5.3,5.5,9.1,10.8,9.1h0c0.1,0,0.2,0,0.2,0l2.8,16l-7.1,7.1
		c-0.5,0.5-0.6,1.3-0.3,1.9c0.3,0.6,0.9,0.9,1.5,0.9c0.1,0,0.2,0,0.3,0l17.6-3c0.7-0.1,1.3-0.7,1.4-1.4C85.1,91.7,84.7,91,84,90.7
		L84,90.7z M35.6,23l15.1,2.6l-1.4,7.8l-15.1-2.6L35.6,23z M35.7,67.6c-4.2-0.7-7-4.7-6.3-8.9l4.3-24.6l15.1,2.6l-4.3,24.6
		c-0.6,3.7-3.8,6.4-7.6,6.4C36.6,67.7,36.2,67.7,35.7,67.6L35.7,67.6z M35.1,92.7l-7.2-1.2l4-1.9L35.1,92.7z M61.2,61.4l-4.3-24.6
		L72,34.1l4.3,24.6c0.4,2-0.1,4.1-1.3,5.7c-1.2,1.7-2.9,2.8-5,3.1c-0.4,0.1-0.9,0.1-1.3,0.1C65,67.7,61.8,65.1,61.2,61.4L61.2,61.4z
		 M70.1,23l1.4,7.8l-15.1,2.6L55,25.7L70.1,23z M70.7,92.7l3.2-3.1l4,1.9L70.7,92.7z M70.7,92.7"/>
	<path class="st0" d="M61.4,38.1c-0.4,0-0.9,0.2-1.2,0.5c-0.3,0.3-0.5,0.7-0.5,1.2c0,0.4,0.2,0.9,0.5,1.2c0.3,0.3,0.7,0.5,1.2,0.5
		c0.4,0,0.9-0.2,1.2-0.5c0.3-0.3,0.5-0.7,0.5-1.2c0-0.4-0.2-0.9-0.5-1.2C62.3,38.2,61.8,38.1,61.4,38.1L61.4,38.1z M61.4,38.1"/>
	<path class="st0" d="M71.5,40.9c0.3-0.3,0.5-0.7,0.5-1.2c0-0.4-0.2-0.9-0.5-1.2c-0.3-0.3-0.7-0.5-1.2-0.5c-0.4,0-0.9,0.2-1.2,0.5
		c-0.3,0.3-0.5,0.7-0.5,1.2c0,0.4,0.2,0.9,0.5,1.2c0.3,0.3,0.7,0.5,1.2,0.5C70.7,41.4,71.2,41.2,71.5,40.9L71.5,40.9z M71.5,40.9"/>
	<path class="st0" d="M66.7,44.2c-0.4,0-0.9,0.2-1.2,0.5C65.2,45,65,45.4,65,45.8c0,0.4,0.2,0.9,0.5,1.2c0.3,0.3,0.7,0.5,1.2,0.5
		c0.4,0,0.9-0.2,1.2-0.5c0.3-0.3,0.5-0.7,0.5-1.2c0-0.4-0.2-0.9-0.5-1.2C67.5,44.3,67.1,44.2,66.7,44.2L66.7,44.2z M66.7,44.2"/>
	<path class="st0" d="M35.4,43.6c-0.4,0-0.9,0.2-1.2,0.5c-0.3,0.3-0.5,0.7-0.5,1.2c0,0.4,0.2,0.9,0.5,1.2c0.3,0.3,0.7,0.5,1.2,0.5
		c0.4,0,0.9-0.2,1.2-0.5c0.3-0.3,0.5-0.7,0.5-1.2c0-0.4-0.2-0.9-0.5-1.2C36.3,43.8,35.9,43.6,35.4,43.6L35.4,43.6z M35.4,43.6"/>
	<path class="st0" d="M43.3,49.1c0-0.4-0.2-0.9-0.5-1.2c-0.3-0.3-0.7-0.5-1.2-0.5c-0.4,0-0.9,0.2-1.2,0.5c-0.3,0.3-0.5,0.7-0.5,1.2
		c0,0.4,0.2,0.9,0.5,1.2c0.3,0.3,0.7,0.5,1.2,0.5c0.4,0,0.9-0.2,1.2-0.5C43.1,49.9,43.3,49.5,43.3,49.1L43.3,49.1z M43.3,49.1"/>
</g>
</svg>
