<?xml version="1.0" encoding="utf-8"?>
<!-- Generator: Adobe Illustrator 21.1.0, SVG Export Plug-In . SVG Version: 6.00 Build 0)  -->
<svg version="1.1" id="Layer_1" xmlns="http://www.w3.org/2000/svg" xmlns:xlink="http://www.w3.org/1999/xlink" x="0px" y="0px"
	 viewBox="0 0 100 100" style="enable-background:new 0 0 100 100;" xml:space="preserve">
<style type="text/css">
	.st0{fill:#FFFFFF;}
</style>
<g>
	<path class="st0" d="M50,93.2c-11.5,0-22.4-4.5-30.6-12.7C11.3,72.4,6.8,61.5,6.8,50s4.5-22.4,12.7-30.6c8.2-8.2,19-12.7,30.6-12.7
		s22.4,4.5,30.6,12.7c8.2,8.2,12.7,19,12.7,30.6s-4.5,22.4-12.7,30.6C72.4,88.7,61.5,93.2,50,93.2z M50,10.2
		c-21.9,0-39.8,17.9-39.8,39.8S28.1,89.8,50,89.8S89.8,71.9,89.8,50S71.9,10.2,50,10.2z"/>
	<path class="st0" d="M79.4,71.6c-0.3,0-0.7-0.1-1-0.3c-0.8-0.5-1-1.6-0.5-2.4c2.2-3.2,3.8-6.8,4.8-10.6c0.2-0.9,1.2-1.5,2.1-1.2
		c0.9,0.2,1.5,1.2,1.2,2.1c-1.1,4.2-2.8,8.1-5.2,11.6C80.5,71.3,79.9,71.6,79.4,71.6z"/>
	<path class="st0" d="M85.5,53.3C85.4,53.3,85.4,53.3,85.5,53.3c-1,0-1.8-0.8-1.7-1.8c0-0.5,0-1,0-1.5c0-1,0.8-1.7,1.7-1.7
		s1.7,0.8,1.7,1.7c0,0.5,0,1.1,0,1.6C87.1,52.5,86.4,53.3,85.5,53.3z"/>
	<path class="st0" d="M50,78c-3.3,0-6-2.7-6-6V42c0-3.3,2.7-6,6-6s6,2.7,6,6v30C56,75.3,53.3,78,50,78z M50,39.4
		c-1.4,0-2.6,1.2-2.6,2.6v30c0,1.4,1.2,2.6,2.6,2.6s2.6-1.2,2.6-2.6V42C52.6,40.6,51.4,39.4,50,39.4z"/>
	<path class="st0" d="M50,34.1c-1.6,0-3.1-0.6-4.3-1.8C44.6,31.2,44,29.6,44,28c0-1.6,0.6-3.1,1.8-4.3c1.1-1.1,2.7-1.8,4.3-1.8
		c1.6,0,3.1,0.6,4.3,1.8c1.1,1.1,1.8,2.7,1.8,4.3c0,1.6-0.6,3.1-1.8,4.3C53.1,33.4,51.6,34.1,50,34.1z M50,25.5
		c-0.7,0-1.3,0.3-1.8,0.8c-0.5,0.5-0.8,1.1-0.8,1.8c0,0.7,0.3,1.3,0.8,1.8c0.5,0.5,1.1,0.8,1.8,0.8c0.7,0,1.3-0.3,1.8-0.8
		c0.5-0.5,0.8-1.1,0.8-1.8c0-0.7-0.3-1.3-0.8-1.8C51.3,25.7,50.7,25.5,50,25.5z"/>
</g>
</svg>
