<?xml version="1.0" encoding="utf-8"?>
<!-- Generator: Adobe Illustrator 21.1.0, SVG Export Plug-In . SVG Version: 6.00 Build 0)  -->
<svg version="1.1" id="Layer_1" xmlns="http://www.w3.org/2000/svg" xmlns:xlink="http://www.w3.org/1999/xlink" x="0px" y="0px"
	 viewBox="0 0 100 100" style="enable-background:new 0 0 100 100;" xml:space="preserve">
<style type="text/css">
	.st0{fill:#FFFFFF;}
</style>
<g>
	<path class="st0" d="M66.7,20.8c-0.8-2.7-3.3-4.7-6.1-4.7c-0.9,0-1.7,0.7-1.7,1.7s0.7,1.7,1.7,1.7c1.7,0,3,1.3,3,3s-1.4,3-3,3
		c-0.9,0-1.7,0.7-1.7,1.7s0.7,1.7,1.7,1.7c2.9,0,5.4-1.9,6.1-4.7h14.4v9.5H18.9v-9.5h19.4c0.9,0,1.7-0.8,1.7-1.7s-0.8-1.7-1.7-1.7
		H37c0.6-0.8,1.5-1.3,2.5-1.3c1.7,0,3,1.3,3,3s-1.3,3-3,3c-0.9,0-1.7,0.7-1.7,1.7s0.8,1.7,1.7,1.7c3.5,0,6.3-2.8,6.3-6.3
		s-2.8-6.3-6.3-6.3c-2.9,0-5.4,1.9-6.1,4.7H15.6v63h68.8v-63H66.7z M18.9,80.5V37h62.2v43.4H18.9z"/>
	<path class="st0" d="M43,72.3h-3V43.6c0-0.2,0-0.4-0.1-0.6c-0.2-0.4-0.5-0.7-0.9-0.9c-0.4-0.2-0.9-0.2-1.3,0
		c-0.2,0.1-0.4,0.2-0.5,0.4l-7,7c-0.3,0.3-0.5,0.7-0.5,1.2c0,0.4,0.2,0.9,0.5,1.2l0,0c0.6,0.6,1.7,0.6,2.4,0l4.2-4.2v24.7h-3
		c-0.9,0-1.7,0.8-1.7,1.7s0.7,1.7,1.7,1.7H43c0.9,0,1.7-0.8,1.7-1.7S43.9,72.3,43,72.3z"/>
	<path class="st0" d="M60.5,41.9c-4.8,0-8.7,3.9-8.7,8.7c0,4.8,3.9,8.7,8.7,8.7c2,0,3.8-0.6,5.3-1.8V67c0,2.9-2.4,5.3-5.3,5.3
		s-5.3-2.4-5.3-5.3c0-0.9-0.7-1.7-1.7-1.7c-0.9,0-1.7,0.7-1.7,1.7c0,4.8,3.9,8.7,8.7,8.7c4.8,0,8.7-3.9,8.7-8.7V50.6
		C69.2,45.8,65.3,41.9,60.5,41.9z M65.9,50.6c0,2.9-2.4,5.3-5.3,5.3s-5.3-2.4-5.3-5.3s2.4-5.3,5.3-5.3S65.9,47.6,65.9,50.6z"/>
	<path class="st0" d="M46.5,19.5c1.7,0,3,1.3,3,3s-1.3,3-3,3c-0.9,0-1.7,0.7-1.7,1.7s0.8,1.7,1.7,1.7c3.5,0,6.3-2.8,6.3-6.3
		s-2.8-6.3-6.3-6.3c-0.9,0-1.7,0.7-1.7,1.7S45.6,19.5,46.5,19.5z"/>
	<path class="st0" d="M53.5,19.5c1.7,0,3,1.3,3,3s-1.3,3-3,3c-0.9,0-1.7,0.7-1.7,1.7s0.8,1.7,1.7,1.7c3.5,0,6.3-2.8,6.3-6.3
		s-2.8-6.3-6.3-6.3c-0.9,0-1.7,0.7-1.7,1.7S52.6,19.5,53.5,19.5z"/>
</g>
</svg>
