<?xml version="1.0" encoding="utf-8"?>
<!-- Generator: Adobe Illustrator 21.1.0, SVG Export Plug-In . SVG Version: 6.00 Build 0)  -->
<svg version="1.1" id="Layer_1" xmlns="http://www.w3.org/2000/svg" xmlns:xlink="http://www.w3.org/1999/xlink" x="0px" y="0px"
	 viewBox="0 0 100 100" style="enable-background:new 0 0 100 100;" xml:space="preserve">
<style type="text/css">
	.st0{fill:#FFFFFF;}
</style>
<g>
	<path class="st0" d="M41.5,69.7H24.2c-0.9,0-1.7,0.8-1.7,1.7s0.8,1.7,1.7,1.7h17.3c0.9,0,1.7-0.8,1.7-1.7S42.4,69.7,41.5,69.7
		L41.5,69.7z M41.5,69.7"/>
	<path class="st0" d="M67.3,69.7H50c-0.9,0-1.7,0.8-1.7,1.7s0.8,1.7,1.7,1.7h17.3c0.9,0,1.7-0.8,1.7-1.7S68.2,69.7,67.3,69.7
		L67.3,69.7z M67.3,69.7"/>
	<path class="st0" d="M67.3,26.9H24.2c-0.9,0-1.7,0.8-1.7,1.7c0,0.9,0.8,1.7,1.7,1.7h43.1c0.9,0,1.7-0.8,1.7-1.7
		C69,27.7,68.2,26.9,67.3,26.9L67.3,26.9z M67.3,26.9"/>
	<path class="st0" d="M67.3,35.5H50c-0.9,0-1.7,0.8-1.7,1.7s0.8,1.7,1.7,1.7h17.3c0.9,0,1.7-0.8,1.7-1.7S68.2,35.5,67.3,35.5
		L67.3,35.5z M67.3,35.5"/>
	<path class="st0" d="M67.3,44H50c-0.9,0-1.7,0.8-1.7,1.7c0,0.9,0.8,1.7,1.7,1.7h17.3c0.9,0,1.7-0.8,1.7-1.7
		C69,44.8,68.2,44,67.3,44L67.3,44z M67.3,44"/>
	<path class="st0" d="M67.3,52.6H50c-0.9,0-1.7,0.8-1.7,1.7c0,0.9,0.8,1.7,1.7,1.7h17.3c0.9,0,1.7-0.8,1.7-1.7
		C69,53.3,68.2,52.6,67.3,52.6L67.3,52.6z M67.3,52.6"/>
	<path class="st0" d="M67.3,61.1H50c-0.9,0-1.7,0.8-1.7,1.7s0.8,1.7,1.7,1.7h17.3c0.9,0,1.7-0.8,1.7-1.7S68.2,61.1,67.3,61.1
		L67.3,61.1z M67.3,61.1"/>
	<path class="st0" d="M41.5,61.1H24.2c-0.9,0-1.7,0.8-1.7,1.7s0.8,1.7,1.7,1.7h17.3c0.9,0,1.7-0.8,1.7-1.7S42.4,61.1,41.5,61.1
		L41.5,61.1z M41.5,61.1"/>
	<path class="st0" d="M41.5,35.5H24.2c-0.9,0-1.7,0.8-1.7,1.7v17.3c0,0.9,0.8,1.7,1.7,1.7h17.3c0.9,0,1.7-0.8,1.7-1.7V37.2
		C43.2,36.2,42.4,35.5,41.5,35.5L41.5,35.5z M39.7,52.7H25.9V38.9h13.8V52.7z M39.7,52.7"/>
	<path class="st0" d="M84.4,25.2h-5.1v-5.1c0-1.9-1.5-3.4-3.4-3.4H15.6c-1.9,0-3.4,1.5-3.4,3.4v54.7c0,4.7,3.8,8.5,8.5,8.5h58.5
		c4.7,0,8.5-3.8,8.5-8.5V28.6C87.8,26.7,86.2,25.2,84.4,25.2L84.4,25.2z M84.4,74.8c0,2.8-2.3,5.1-5.1,5.1H20.8
		c-2.8,0-5.1-2.3-5.1-5.1V20.1h60.2v52.1c0,2.4,1.9,4.3,4.3,4.3c0.9,0,1.7-0.8,1.7-1.7c0-0.9-0.8-1.7-1.7-1.7
		c-0.5,0-0.9-0.4-0.9-0.9V28.6h5.1V74.8z M84.4,74.8"/>
</g>
</svg>
