<?xml version="1.0" encoding="utf-8"?>
<!-- Generator: Adobe Illustrator 21.1.0, SVG Export Plug-In . SVG Version: 6.00 Build 0)  -->
<svg version="1.1" id="Layer_1" xmlns="http://www.w3.org/2000/svg" xmlns:xlink="http://www.w3.org/1999/xlink" x="0px" y="0px"
	 viewBox="0 0 100 100" style="enable-background:new 0 0 100 100;" xml:space="preserve">
<style type="text/css">
	.st0{fill:#FFFFFF;}
</style>
<g>
	<g>
		<path class="st0" d="M83.4,28.4l-12.5-2.1L64.7,16c0,0-0.1,0-0.1-0.1c-0.1-0.2-0.2-0.3-0.4-0.4l-0.1-0.1c0,0-0.1,0-0.1-0.1
			l-0.1-0.1c-0.2,0-0.4-0.1-0.6-0.1H36.7c-0.2,0-0.5,0-0.7,0.1c0,0,0,0-0.1,0.1c0,0-0.1,0-0.1,0.1l-0.1,0.1
			c-0.2,0.1-0.3,0.2-0.4,0.4L35.2,16l-6.2,10.3l-12.5,2.1c-0.8,0.1-1.4,0.8-1.4,1.7v53c0,0.9,0.8,1.7,1.7,1.7h66.3
			c0.9,0,1.7-0.8,1.7-1.7v-53C84.9,29.3,84.3,28.6,83.4,28.4z M60.7,18.6l-8,18.7h-5.3l-8-18.7H60.7z M37.2,39v42.5H18.6V31.6
			l11.8-2c0.5-0.1,0.9-0.4,1.2-0.8l4.9-8.2l7.1,16.6h-4.7C38,37.2,37.2,38,37.2,39z M81.4,81.4H40.7V40.7h13.1
			c0.3,0,0.5-0.1,0.8-0.2c0.1,0,0.1-0.1,0.2-0.1c0.3-0.2,0.5-0.4,0.6-0.7l8.1-19l4.9,8.2c0.2,0.4,0.7,0.7,1.2,0.8l11.8,2V81.4z"/>
	</g>
	<g>
		<path class="st0" d="M47.9,50.1L47.9,50.1c-1.3,0-2.2,1-2.2,2.2s1,2.2,2.2,2.2c1.2,0,2.2-1,2.2-2.2S49.1,50.1,47.9,50.1z"/>
	</g>
	<g>
		<path class="st0" d="M47.9,59L47.9,59c-1.3,0-2.2,1-2.2,2.2s1,2.2,2.2,2.2c1.2,0,2.2-1,2.2-2.2S49.1,59,47.9,59z"/>
	</g>
	<g>
		<path class="st0" d="M47.9,67.8L47.9,67.8c-1.3,0-2.2,1-2.2,2.2c0,1.2,1,2.2,2.2,2.2c1.2,0,2.2-1,2.2-2.2
			C50.1,68.8,49.1,67.8,47.9,67.8z"/>
	</g>
</g>
</svg>
