<?xml version="1.0" encoding="utf-8"?>
<!-- Generator: Adobe Illustrator 21.1.0, SVG Export Plug-In . SVG Version: 6.00 Build 0)  -->
<svg version="1.1" id="Layer_1" xmlns="http://www.w3.org/2000/svg" xmlns:xlink="http://www.w3.org/1999/xlink" x="0px" y="0px"
	 viewBox="0 0 100 100" style="enable-background:new 0 0 100 100;" xml:space="preserve">
<style type="text/css">
	.st0{fill:#FFFFFF;}
</style>
<g>
	<path class="st0" d="M78.7,12.3c0-0.9-0.7-1.6-1.6-1.6H26.4c-3.6,0-6.5,2.9-6.5,6.5v65.4c0,3.6,2.9,6.5,6.5,6.5H77
		c0.6,0,1.2-0.3,1.4-0.9c0.3-0.5,0.3-1.2-0.1-1.7c-1.6-2.4-1.6-5.6,0-8l0,0c0.2-0.3,0.3-0.6,0.3-0.9V12.3z M23.1,17.2
		c0-1.8,1.5-3.3,3.3-3.3h49V76h-49c-1.2,0-2.3,0.3-3.3,0.9V17.2z M26.4,85.8c-1.8,0-3.3-1.5-3.3-3.3c0-1.8,1.5-3.3,3.3-3.3h48.1
		c-0.7,2.1-0.7,4.4,0,6.5H26.4z"/>
	<path class="st0" d="M36.2,48.2V58c0,2.7,2.2,4.9,4.9,4.9h16.3c2.7,0,4.9-2.2,4.9-4.9v-9.8c2-1.5,3.3-3.9,3.3-6.5
		c0-5-4.7-8.9-9.7-8c-1.5-2.1-3.9-3.5-6.7-3.5c-2.8,0-5.2,1.4-6.7,3.5c-5-0.9-9.7,3-9.7,8C32.9,44.2,34.2,46.7,36.2,48.2z
		 M57.4,59.7H41.1c-0.9,0-1.6-0.7-1.6-1.6v-1.6h19.6V58C59.1,58.9,58.3,59.7,57.4,59.7z M41.3,36.8c-0.1,0.5-0.2,1.1-0.2,1.6
		c0,0.9,0.7,1.6,1.6,1.6c0.9,0,1.6-0.7,1.6-1.6c0-2.7,2.2-4.9,4.9-4.9c2.7,0,4.9,2.2,4.9,4.9c0,0.9,0.7,1.6,1.6,1.6s1.6-0.7,1.6-1.6
		c0-0.5-0.1-1.1-0.2-1.6c2.8-0.1,5.1,2.1,5.1,4.9c0,1.7-0.9,3.3-2.5,4.2c-0.5,0.3-0.8,0.8-0.8,1.4v5.8H39.5v-5.8
		c0-0.6-0.3-1.1-0.8-1.4c-1.5-0.9-2.5-2.5-2.5-4.2C36.2,38.9,38.5,36.7,41.3,36.8z"/>
</g>
</svg>
