<?xml version="1.0" encoding="utf-8"?>
<!-- Generator: Adobe Illustrator 21.1.0, SVG Export Plug-In . SVG Version: 6.00 Build 0)  -->
<svg version="1.1" id="Layer_1" xmlns="http://www.w3.org/2000/svg" xmlns:xlink="http://www.w3.org/1999/xlink" x="0px" y="0px"
	 viewBox="0 0 100 100" style="enable-background:new 0 0 100 100;" xml:space="preserve">
<style type="text/css">
	.st0{fill:#FFFFFF;}
</style>
<g>
	<path class="st0" d="M95.5,50.5H73.7c0.1-0.6,0-1.1-0.3-1.6c-0.4-0.8-1.3-1.3-2.2-1.3H16.7c-0.9,0-1.7,0.5-2.2,1.3
		c-0.4,0.8-0.4,1.8,0,2.5l2.4,4c0.5,0.9,0.8,1.9,0.8,2.9v0.7c0,5,4,9,9,9h34.6c4.9,0,8.8-3.9,8.9-8.7h25.3c2.4,0,4.4-2,4.4-4.4
		C99.9,52.5,97.9,50.5,95.5,50.5L95.5,50.5z M61.3,65H26.7c-1.5,0-2.8-0.6-3.9-1.5h16.1c0.8,0,1.5-0.7,1.5-1.5
		c0-0.8-0.7-1.5-1.5-1.5h-18c-0.1-0.5-0.2-0.9-0.3-1.5h12.8c0.8,0,1.4-0.6,1.4-1.4c0-0.8-0.6-1.5-1.4-1.5H20.4
		c-0.2-0.8-0.5-1.7-1-2.4l-2-3.4h53.2l-2,3.4c-0.2,0.3-0.3,0.6-0.5,0.9c-0.1,0.2-0.1,0.4-0.2,0.6c0,0.1-0.1,0.2-0.1,0.4
		c-0.1,0.3-0.1,0.5-0.2,0.8c0,0.1,0,0.1,0,0.2c-0.1,0.3-0.1,0.6-0.1,0.9c0,0,0,0,0,0.1l-0.1,1.6h0C67.2,62.4,64.5,65,61.3,65
		L61.3,65z M95.5,56.3H70.6c0,0,0,0,0,0c0.1-0.3,0.2-0.6,0.4-0.9l0,0l1.2-2h23.3c0.8,0,1.5,0.7,1.5,1.5C97,55.7,96.3,56.3,95.5,56.3
		L95.5,56.3z M95.5,56.3"/>
	<path class="st0" d="M69.4,83.9h-7.1c2.5-1.9,4-3.3,4.2-5c0.2-1.9-0.9-3.4-2.8-5.9c-0.4-0.5-0.8-1-1.2-1.6l-0.9-1.2l-1.2,0.9
		c-2.7,2-4.1,3.4-4.4,5.2c-0.2,1.9,0.9,3.4,2.9,5.9c0.4,0.5,0.8,1,1.2,1.6l0.1,0.1h-15c2.5-1.9,4-3.3,4.2-5c0.2-1.9-0.9-3.4-2.8-5.9
		c-0.4-0.5-0.8-1-1.2-1.6l-0.9-1.2l-1.2,0.9c-2.7,2-4.1,3.4-4.4,5.2c-0.2,1.9,0.9,3.4,2.9,5.9c0.4,0.5,0.8,1,1.2,1.6l0.1,0.1H27.8
		c2.5-1.9,4-3.3,4.2-5c0.2-1.9-0.9-3.4-2.9-5.9c-0.4-0.5-0.8-1-1.2-1.6L27,70.3l-1.2,0.9c-2.6,2-4.1,3.4-4.4,5.2
		c-0.2,1.9,0.9,3.4,2.9,5.9c0.4,0.5,0.8,1,1.2,1.6l0.1,0.1H20c-0.8,0-1.5,0.7-1.5,1.5c0,0.8,0.7,1.5,1.5,1.5h49.4
		c0.8,0,1.5-0.7,1.5-1.5C70.9,84.6,70.2,83.9,69.4,83.9L69.4,83.9z M58.9,76.7c0.1-0.6,1-1.5,2.1-2.4c0.1,0.2,0.2,0.3,0.4,0.5
		c1.4,1.8,2.4,3,2.3,3.7c-0.1,0.6-1,1.5-2.1,2.4c-0.1-0.2-0.2-0.3-0.4-0.5C59.8,78.6,58.8,77.3,58.9,76.7L58.9,76.7z M41.8,76.7
		c0.1-0.6,1-1.5,2.1-2.4c0.1,0.2,0.2,0.3,0.4,0.5c1.4,1.8,2.3,3,2.3,3.7c-0.1,0.6-1,1.5-2.1,2.4c-0.1-0.2-0.2-0.3-0.4-0.5
		C42.7,78.6,41.7,77.3,41.8,76.7L41.8,76.7z M24.4,76.7c0.1-0.6,1-1.5,2.1-2.4c0.1,0.2,0.2,0.3,0.4,0.5c1.4,1.8,2.4,3,2.3,3.7
		c-0.1,0.6-1,1.5-2.1,2.4c-0.1-0.2-0.2-0.3-0.4-0.5C25.3,78.6,24.3,77.3,24.4,76.7L24.4,76.7z M24.4,76.7"/>
	<path class="st0" d="M27.6,34.9c0,2.7,1.1,5.3,3,7.2c0.3,0.3,0.7,0.4,1,0.4c0.4,0,0.7-0.1,1-0.4c0.6-0.6,0.6-1.5,0-2
		c-1.4-1.4-2.1-3.2-2.1-5.1c0-1.9,0.8-3.8,2.1-5.1c1.9-1.9,3-4.5,3-7.2c0-2.7-1.1-5.3-3-7.2c-0.6-0.6-1.5-0.6-2,0
		c-0.6,0.6-0.6,1.5,0,2.1c1.4,1.4,2.1,3.2,2.1,5.1c0,1.9-0.8,3.8-2.1,5.1C28.7,29.6,27.6,32.2,27.6,34.9L27.6,34.9z M27.6,34.9"/>
	<path class="st0" d="M45.4,34.9c0,2.7,1.1,5.3,3,7.2c0.3,0.3,0.7,0.4,1,0.4c0.4,0,0.7-0.1,1-0.4c0.6-0.6,0.6-1.5,0-2
		c-1.4-1.4-2.1-3.2-2.1-5.1c0-1.9,0.8-3.8,2.1-5.1c1.9-1.9,3-4.5,3-7.2c0-2.7-1.1-5.3-3-7.2c-0.6-0.6-1.5-0.6-2,0
		c-0.6,0.6-0.6,1.5,0,2.1c1.4,1.4,2.1,3.2,2.1,5.1c0,1.9-0.8,3.8-2.1,5.1C46.5,29.6,45.4,32.2,45.4,34.9L45.4,34.9z M45.4,34.9"/>
</g>
</svg>
