<?xml version="1.0" encoding="utf-8"?>
<!-- Generator: Adobe Illustrator 21.1.0, SVG Export Plug-In . SVG Version: 6.00 Build 0)  -->
<svg version="1.1" id="Layer_1" xmlns="http://www.w3.org/2000/svg" xmlns:xlink="http://www.w3.org/1999/xlink" x="0px" y="0px"
	 viewBox="0 0 100 100" style="enable-background:new 0 0 100 100;" xml:space="preserve">
<style type="text/css">
	.st0{fill:#FFFFFF;}
</style>
<g>
	<path class="st0" d="M24.3,77.2L24.3,77.2c-0.6-0.5-1.5-0.4-1.9,0.2c-0.5,0.6-0.3,1.5,0.3,1.9l0,0c0.3,0.2,0.5,0.3,0.8,0.3
		c0.4,0,0.8-0.2,1.1-0.5C25,78.6,24.9,77.7,24.3,77.2z"/>
	<path class="st0" d="M24.3,65.9L24.3,65.9c-0.6-0.5-1.5-0.4-1.9,0.2c-0.5,0.6-0.3,1.5,0.3,1.9l0,0c0.3,0.2,0.5,0.3,0.8,0.3
		c0.4,0,0.8-0.2,1.1-0.5C25,67.2,24.9,66.4,24.3,65.9z"/>
	<path class="st0" d="M24.3,54.6L24.3,54.6c-0.6-0.5-1.5-0.4-1.9,0.2c-0.5,0.6-0.3,1.5,0.3,1.9l0,0c0.3,0.2,0.5,0.3,0.8,0.3
		c0.4,0,0.8-0.2,1.1-0.5C25,55.9,24.9,55,24.3,54.6z"/>
	<path class="st0" d="M77.4,77.2L77.4,77.2c-0.6-0.5-1.5-0.4-1.9,0.3c-0.5,0.6-0.3,1.5,0.3,1.9l0,0c0.2,0.2,0.5,0.3,0.8,0.3
		c0.4,0,0.8-0.2,1.1-0.5C78.1,78.5,78,77.7,77.4,77.2z"/>
	<path class="st0" d="M75.7,68.1L75.7,68.1c0.3,0.2,0.6,0.3,0.8,0.3c0.4,0,0.8-0.2,1.1-0.5c0.5-0.6,0.3-1.5-0.3-1.9l0,0
		c-0.6-0.5-1.5-0.3-1.9,0.3C74.9,66.8,75.1,67.6,75.7,68.1z"/>
	<path class="st0" d="M75.7,56.8L75.7,56.8c0.3,0.2,0.6,0.3,0.8,0.3c0.4,0,0.8-0.2,1.1-0.5c0.5-0.6,0.3-1.5-0.3-1.9l0,0
		c-0.6-0.5-1.5-0.3-1.9,0.3C74.9,55.4,75.1,56.3,75.7,56.8z"/>
	<path class="st0" d="M65.7,62.7L65.7,62.7c0.8,0,1.4-0.6,1.4-1.4c0-0.8-0.6-1.4-1.4-1.4h0c-0.8,0-1.4,0.6-1.4,1.4
		C64.3,62.1,64.9,62.7,65.7,62.7z"/>
	<path class="st0" d="M34.3,71.3L34.3,71.3c-0.8,0-1.4,0.6-1.4,1.4c0,0.8,0.6,1.4,1.4,1.4h0c0.8,0,1.4-0.6,1.4-1.4
		C35.7,71.9,35.1,71.3,34.3,71.3z"/>
	<path class="st0" d="M24.8,39.8c-0.4,0-0.7,0.1-1,0.4c-0.3,0.3-0.4,0.6-0.4,1c0,0.4,0.1,0.7,0.4,1c0.3,0.3,0.6,0.4,1,0.4
		c0.4,0,0.7-0.1,1-0.4c0.3-0.3,0.4-0.6,0.4-1c0-0.4-0.1-0.7-0.4-1C25.5,40,25.2,39.8,24.8,39.8z"/>
	<path class="st0" d="M84,48.6h-5.7c2.5-1.4,4.1-4.1,4.1-7.1c0-3.2-1.8-6-4.5-7.3c0.5-1,0.7-2.2,0.7-3.4c0-4.5-3.7-8.2-8.2-8.2
		c-1.4,0-2.8,0.4-4,1.1c-1.6-1.1-3.5-1.7-5.5-1.7c-0.1,0-0.3,0-0.4,0c-1.5-4.3-5.5-7.2-10.1-7.2c-4.1,0-7.9,2.4-9.6,6.1
		c-0.3,0-0.7,0-1,0c-4.3,0-8.2,2.6-9.8,6.5c-0.3-0.1-0.6-0.2-0.9-0.2c0.2-1.8,0.7-3.1,1.7-4c0.8-0.8,1.7-1,1.7-1l0,0l0,0
		c0.3,0,0.6-0.2,0.8-0.4c0.3-0.3,0.4-0.6,0.4-1c0-0.4-0.1-0.7-0.4-1c-0.3-0.3-0.6-0.4-1-0.4c-0.1,0-0.2,0-0.2,0l0,0
		c-0.8,0.1-1.9,0.6-3,1.5V16c0-0.8-0.6-1.4-1.4-1.4h-3.3c-0.8,0-1.4,0.6-1.4,1.4v5.2c-1.6-1.9-3.3-3.1-3.4-3.2
		c-0.6-0.4-1.5-0.2-1.9,0.4c-0.4,0.6-0.2,1.5,0.4,1.9c0,0,4.2,2.8,4.8,6.9c-4.7,1.4-8.1,5.5-8.1,10.3c0,2,1.1,6.8,2.3,11.1H16
		c-0.8,0-1.4,0.6-1.4,1.4v34c0,0.8,0.6,1.4,1.4,1.4h68c0.8,0,1.4-0.6,1.4-1.4V50C85.4,49.2,84.7,48.6,84,48.6z M39.7,23.4
		c0.5,0,1.1,0.1,1.6,0.2c0.7,0.1,1.3-0.2,1.6-0.9c1.1-3.2,4.1-5.3,7.5-5.3c3.3,0,6.2,2,7.4,5c-3.7,1.3-6.4,4.9-6.4,9
		c0,0.8,0.6,1.4,1.4,1.4c0.8,0,1.4-0.6,1.4-1.4c0-3.8,3.1-6.8,6.8-6.8c1.7,0,3.3,0.6,4.5,1.7c0.5,0.4,1.2,0.5,1.7,0.1
		c0.9-0.7,2.1-1.1,3.3-1.1c3,0,5.5,2.4,5.5,5.5c0,1.2-0.4,2.3-1.1,3.3c-0.3,0.4-0.3,0.9-0.2,1.3s0.5,0.8,1,0.9
		c2.4,0.6,4.1,2.8,4.1,5.3c0,3-2.4,5.5-5.5,5.5c-0.3,0-0.7,0-1-0.1c-0.7-0.1-1.3,0.3-1.6,0.9c-0.1,0.3-0.2,0.6-0.4,0.9h-1.7l5.7-8.1
		c0.2-0.3,0.3-0.7,0.2-1c-0.1-0.4-0.3-0.7-0.6-0.9l-4-2.7c-0.3-0.2-0.7-0.3-1.1-0.2c-0.4,0.1-0.7,0.3-0.9,0.6l-2,3.3l1.6-8.3
		c0.1-0.7-0.3-1.5-1.1-1.6L63.8,29c-0.4-0.1-0.7,0-1,0.2c-0.3,0.2-0.5,0.5-0.6,0.9l-0.5,2.4h-3.2c-0.8,0-1.4,0.6-1.4,1.4v7.9
		c-0.9-4.7-5.1-8.3-10-8.3c-2.2,0-4.4,0.7-6.1,2.1c-1.5,1.1-2.6,2.6-3.3,4.3c0.2-1,0.3-1.8,0.3-2.4c0-1.9-0.5-3.6-1.4-5.2
		c0.7-2,2.6-3.3,4.7-3.3c0.3,0,0.7,0,1,0.1c0.7,0.1,1.3-0.2,1.6-0.9c0.3-0.8,0.8-1.6,1.5-2.2c0.6-0.5,0.6-1.4,0.2-1.9
		c-0.5-0.6-1.4-0.6-1.9-0.2c-0.8,0.6-1.4,1.4-1.8,2.3c-0.1,0-0.3,0-0.4,0c-2.7,0-5.2,1.4-6.6,3.7c-0.7-0.6-1.4-1.2-2.2-1.7
		C33.6,25.4,36.4,23.4,39.7,23.4z M65.1,47.6l5.2-8.6l1.7,1.1l-6,8.5h-1.1L65.1,47.6z M63.4,42.1v-3.8c0,0,0-0.1,0-0.1l1.2-6.2
		l0.8,0.2L63.4,42.1z M59.8,46.2c0-0.1,0-0.1,0-0.2V35.3h0.8v13.4h-0.4c0-0.1,0-0.2,0-0.3C60.2,47.6,60.1,46.9,59.8,46.2z
		 M40.9,39.8c0,0-0.1,0-0.1,0c1.4-2.1,3.7-3.4,6.3-3.4c3.6,0,6.7,2.6,7.3,6.1c-1.9,0-3.6,1-4.7,2.4C48,41.8,44.7,39.8,40.9,39.8z
		 M48.2,48.6H33.8h-0.2c0.6-3.5,3.7-6.1,7.3-6.1C44.5,42.5,47.6,45.2,48.2,48.6z M54.4,45.2c1.7,0,3,1.4,3,3.2c0,0.1,0,0.2,0,0.3
		h-6.1c0-0.1,0-0.2,0-0.3C51.4,46.6,52.7,45.2,54.4,45.2z M25.6,17.4h0.6v9.3c-0.2,0-0.4,0-0.6,0V17.4z M17.5,36.4
		c0.1,0,0.2,0,0.3,0h6.8c0.8,0,1.4-0.6,1.4-1.4s-0.6-1.4-1.4-1.4h-6.1c1.5-2.5,4.4-4.3,7.8-4.3c4.9,0,8.8,3.6,8.8,8.1
		c0,0.4-0.1,1-0.3,2.2h-5.5c-0.8,0-1.4,0.6-1.4,1.4s0.6,1.4,1.4,1.4h4.6c-1.7,1.6-2.8,3.7-3.1,6.1h-11c-1.5-5.6-2.4-9.6-2.4-11.1
		C17.4,37.2,17.4,36.8,17.5,36.4z M82.6,59.9H70.4c-0.8,0-1.4,0.6-1.4,1.4c0,0.8,0.6,1.4,1.4,1.4h12.2v8.6H39
		c-0.8,0-1.4,0.6-1.4,1.4c0,0.8,0.6,1.4,1.4,1.4h43.6v8.6H17.4V74h12.2c0.8,0,1.4-0.6,1.4-1.4c0-0.8-0.6-1.4-1.4-1.4H17.4v-8.6H61
		c0.8,0,1.4-0.6,1.4-1.4c0-0.8-0.6-1.4-1.4-1.4H17.4v-8.6h1.3h63.9V59.9z"/>
	<path class="st0" d="M48.5,24.9L48.5,24.9c0.8,0,1.4-0.6,1.4-1.4s-0.6-1.4-1.4-1.4h0c-0.8,0-1.4,0.6-1.4,1.4
		C47.1,24.2,47.8,24.9,48.5,24.9z"/>
</g>
</svg>
