<?xml version="1.0" encoding="utf-8"?>
<!-- Generator: Adobe Illustrator 21.1.0, SVG Export Plug-In . SVG Version: 6.00 Build 0)  -->
<svg version="1.1" id="Layer_1" xmlns="http://www.w3.org/2000/svg" xmlns:xlink="http://www.w3.org/1999/xlink" x="0px" y="0px"
	 viewBox="0 0 100 100" style="enable-background:new 0 0 100 100;" xml:space="preserve">
<style type="text/css">
	.st0{fill:#FFFFFF;}
</style>
<g>
	<path class="st0" d="M62.2,34.3c0,0.4,0.2,0.8,0.5,1.1c0.3,0.3,0.7,0.5,1.1,0.5c0.4,0,0.8-0.2,1.1-0.5l13.5-13.5
		c0.6-0.6,0.6-1.6,0-2.2c-0.6-0.6-1.6-0.6-2.2,0L62.6,33.2C62.3,33.5,62.2,33.9,62.2,34.3z"/>
	<path class="st0" d="M66.3,39c0.3,0.3,0.7,0.5,1.1,0.5s0.8-0.2,1.1-0.5l13.5-13.5c0.3-0.3,0.5-0.7,0.5-1.1c0-0.4-0.2-0.8-0.5-1.1
		c-0.6-0.6-1.6-0.6-2.2,0L66.3,36.8C65.7,37.4,65.7,38.4,66.3,39z"/>
	<path class="st0" d="M69.2,46.4L86,29.7c0.3-0.3,0.5-0.7,0.5-1.1s-0.2-0.8-0.5-1.1c-0.6-0.6-1.6-0.6-2.2,0L67.1,44.2
		c-2,2-5,2.5-7.5,1.3c-0.6-0.3-1.4-0.1-1.8,0.4L27.4,80c-0.1,0.1-0.1,0.2-0.2,0.2c-1.5,1.5-4,1.5-5.5,0c-0.7-0.7-1.1-1.7-1.1-2.8
		c0-1,0.4-2,1.1-2.8c0.1-0.1,0.1-0.1,0.3-0.2l15.3-13.6c0.6-0.6,0.7-1.5,0.1-2.2c-0.3-0.3-0.7-0.5-1.1-0.5c-0.4,0-0.8,0.1-1.1,0.4
		L19.9,72.2c-0.2,0.1-0.3,0.3-0.4,0.4c-1.3,1.3-2.1,3.1-2.1,5s0.7,3.6,2.1,5c1.3,1.3,3.1,2,5,2c1.9,0,3.6-0.7,5-2
		c0.1-0.1,0.3-0.3,0.4-0.4l18.5-20.9L66.8,82c0.1,0.2,0.3,0.3,0.4,0.4c1.3,1.3,3.1,2,5,2c1.9,0,3.6-0.7,5-2c2.7-2.7,2.7-7.2,0-9.9
		c-0.1-0.1-0.3-0.3-0.4-0.4L55.3,53.2l3.9-4.4C62.7,50,66.6,49,69.2,46.4z M74.9,74.7c0.7,0.7,1.1,1.7,1.1,2.8c0,1-0.4,2-1.1,2.8
		c-1.5,1.5-4,1.5-5.5,0c-0.1-0.1-0.1-0.2-0.2-0.3L50.4,58.8l2.9-3.3l21.3,18.9l0,0C74.7,74.6,74.8,74.7,74.9,74.7z"/>
	<path class="st0" d="M37.5,49l4.8,5.4c0.3,0.3,0.7,0.5,1.2,0.5c0.4,0,0.7-0.1,1-0.4L56,44.2c0.5-0.5,0.7-1.2,0.4-1.8
		c-1.2-2.5-0.7-5.6,1.3-7.5l16.7-16.7c0.3-0.3,0.5-0.7,0.5-1.1s-0.2-0.8-0.5-1.1c-0.6-0.6-1.6-0.6-2.2,0L55.5,32.7
		c-2.6,2.6-3.5,6.5-2.3,10L48.3,47l-4.6-4.1c2.5-5.1,1.5-11.3-2.6-15.3c-4.1-4.1-8.8-6.9-13.3-8c-4.7-1.2-8.8-0.4-11.4,2.3
		s-3.5,6.7-2.3,11.4c1.1,4.5,4,9.2,8,13.3C26.2,50.5,32.4,51.5,37.5,49z M40.4,42.4c-0.4,0.6-0.3,1.5,0.3,2l5.3,4.7l-2.4,2.1L39,46
		c-0.3-0.3-0.7-0.5-1.2-0.5c-0.3,0-0.6,0.1-0.8,0.2c-4.1,2.5-9.3,1.9-12.6-1.5c-3.7-3.7-6.2-7.9-7.2-11.8c-0.9-3.6-0.4-6.6,1.4-8.5
		c1.8-1.8,4.9-2.4,8.5-1.4c4,1,8.1,3.6,11.8,7.2C42.3,33.1,42.9,38.3,40.4,42.4z"/>
</g>
</svg>
