<?xml version="1.0" encoding="utf-8"?>
<!-- Generator: Adobe Illustrator 21.1.0, SVG Export Plug-In . SVG Version: 6.00 Build 0)  -->
<svg version="1.1" id="Layer_1" xmlns="http://www.w3.org/2000/svg" xmlns:xlink="http://www.w3.org/1999/xlink" x="0px" y="0px"
	 viewBox="0 0 100 100" style="enable-background:new 0 0 100 100;" xml:space="preserve">
<style type="text/css">
	.st0{fill:#FFFFFF;}
</style>
<g>
	<path class="st0" d="M88.2,65.8v-10c0-0.8-0.7-1.5-1.5-1.5H71.2c-1.3-2.7-3.7-4.5-5-5.3v-6.5h7.4c0.8,0,1.5-0.7,1.5-1.5v-4.4h1.4
		c4.1,0,7.4-3.3,7.4-7.4v-2.1c0-8.5-6.9-15.4-15.4-15.4H18.3c-3.6,0-6.5,2.9-6.5,6.5v11.9c0,2.8,2.9,5,4.4,5.9v41.9
		c-2.5,0.6-4.4,2.8-4.4,5.5v3.2c0,0.8,0.7,1.5,1.5,1.5h72.1c0.8,0,1.5-0.7,1.5-1.5v-4c0-2.6-2.1-4.7-4.7-4.8
		C85.8,75.2,88.2,70.8,88.2,65.8L88.2,65.8z M69.1,57.4c0,0.3,0.1,0.5,0.1,0.8c0,2.8-1.2,5.3-2.9,6.3v-7H69.1z M67.8,54.4h-1.6v-1.6
		C66.7,53.2,67.3,53.8,67.8,54.4L67.8,54.4z M72.1,39.7H57.4v-2.9h14.7V39.7z M48.8,78h-4c-6.9-7.1-10.9-16.8-10.9-26.7V36.8h20.6
		v4.4c0,0.8,0.7,1.5,1.5,1.5h7.4v6.5c-1.3,0.8-3.7,2.6-5,5.3H44.1c-0.8,0-1.5,0.7-1.5,1.5v10C42.6,70.8,45.1,75.2,48.8,78L48.8,78z
		 M60.4,57.4h2.9v7c-1.7-0.9-2.9-3.4-2.9-6.3C60.3,57.9,60.3,57.6,60.4,57.4L60.4,57.4z M61.7,54.4c0.5-0.6,1-1.2,1.6-1.6v1.6H61.7z
		 M83.8,82.7v2.6H14.7v-1.7c0-1.5,1.2-2.7,2.7-2.7h0.2c0.8,0,1.5-0.7,1.5-1.5V35.3c0-0.6-0.3-1.1-0.8-1.3c-1-0.5-2.9-1.8-3.5-3.1
		h5.7c0.8,0,1.5-0.7,1.5-1.5c0-0.8-0.7-1.5-1.5-1.5h-5.9v-9.6c0-2,1.6-3.6,3.6-3.6h50.1c6.9,0,12.5,5.6,12.5,12.5v2.1
		c0,2.5-2,4.5-4.5,4.5H32.3c-0.8,0-1.5,0.7-1.5,1.5v16c0,5.5,1.1,10.8,3.2,15.8c1.7,4,3.9,7.6,6.7,10.9h-2.5c-0.8,0-1.5,0.7-1.5,1.5
		c0,0.8,0.7,1.5,1.5,1.5H82C83,80.9,83.8,81.7,83.8,82.7L83.8,82.7z M73.2,78H57.7c-6.7,0-12.1-5.4-12.1-12.1v-8.5h11.8
		c0,0.3,0,0.5,0,0.8c0,2.5,0.7,4.8,2,6.6c1.4,1.9,3.3,3,5.4,3c2.1,0,4-1.1,5.4-3c1.3-1.8,2-4.1,2-6.6c0-0.3,0-0.5,0-0.8h13.3v8.5
		C85.3,72.5,79.9,78,73.2,78L73.2,78z M73.2,78"/>
	<path class="st0" d="M26,28.4c-0.3-0.3-0.7-0.4-1-0.4c-0.4,0-0.8,0.2-1,0.4c-0.3,0.3-0.4,0.7-0.4,1c0,0.4,0.2,0.8,0.4,1
		c0.3,0.3,0.7,0.4,1,0.4c0.4,0,0.8-0.2,1-0.4c0.3-0.3,0.4-0.7,0.4-1C26.5,29,26.3,28.6,26,28.4L26,28.4z M26,28.4"/>
	<path class="st0" d="M34.9,78.4c-0.3-0.3-0.7-0.4-1-0.4c-0.4,0-0.8,0.2-1,0.4c-0.3,0.3-0.4,0.7-0.4,1c0,0.4,0.2,0.8,0.4,1
		c0.3,0.3,0.7,0.4,1,0.4c0.4,0,0.8-0.2,1-0.4c0.3-0.3,0.4-0.7,0.4-1C35.3,79,35.1,78.7,34.9,78.4L34.9,78.4z M34.9,78.4"/>
</g>
</svg>
