<?xml version="1.0" encoding="utf-8"?>
<!-- Generator: Adobe Illustrator 21.1.0, SVG Export Plug-In . SVG Version: 6.00 Build 0)  -->
<svg version="1.1" id="Layer_1" xmlns="http://www.w3.org/2000/svg" xmlns:xlink="http://www.w3.org/1999/xlink" x="0px" y="0px"
	 viewBox="0 0 26.9 26.6" style="enable-background:new 0 0 26.9 26.6;" xml:space="preserve">
<style type="text/css">
	.st0{fill:#003B76;}
</style>
<g>
	<path class="st0" d="M24,2.9h-3.5V1.3c0-0.4-0.4-0.8-0.8-0.8s-0.8,0.4-0.8,0.8v1.6h-4.8V1.3c0-0.4-0.4-0.8-0.8-0.8
		c-0.4,0-0.8,0.4-0.8,0.8v1.6H7.8V1.3c0-0.4-0.4-0.8-0.8-0.8S6.2,0.9,6.2,1.3v1.6H2.7c-1.2,0-2.1,1-2.1,2.1v19c0,1.2,1,2.1,2.1,2.1
		H24c1.2,0,2.1-1,2.1-2.1V5C26.2,3.9,25.2,2.9,24,2.9L24,2.9z M24.6,24c0,0.3-0.2,0.5-0.5,0.5H2.7c-0.3,0-0.5-0.2-0.5-0.5V5
		c0-0.3,0.2-0.5,0.5-0.5h3.5v1.6c0,0.4,0.4,0.8,0.8,0.8s0.8-0.4,0.8-0.8V4.5h4.8v1.6c0,0.4,0.4,0.8,0.8,0.8c0.4,0,0.8-0.4,0.8-0.8
		V4.5H19v1.6c0,0.4,0.4,0.8,0.8,0.8s0.8-0.4,0.8-0.8V4.5H24c0.3,0,0.5,0.2,0.5,0.5v19H24.6z"/>
</g>
</svg>
