<?xml version="1.0" encoding="utf-8"?>
<!-- Generator: Adobe Illustrator 21.1.0, SVG Export Plug-In . SVG Version: 6.00 Build 0)  -->
<svg version="1.1" id="Layer_1" xmlns="http://www.w3.org/2000/svg" xmlns:xlink="http://www.w3.org/1999/xlink" x="0px" y="0px"
	 viewBox="0 0 36 36" style="enable-background:new 0 0 36 36;" xml:space="preserve">
<style type="text/css">
	.st0{clip-path:url(#SVGID_2_);fill:#0457A4;}
</style>
<g>
	<defs>
		<rect id="SVGID_1_" width="36" height="36"/>
	</defs>
	<clipPath id="SVGID_2_">
		<use xlink:href="#SVGID_1_"  style="overflow:visible;"/>
	</clipPath>
	<path class="st0" d="M24,13.8c-0.2,0.2-0.6,0.4-0.9,0.4c-0.3,0-0.6-0.1-0.9-0.4c-0.2-0.2-0.4-0.6-0.4-0.9c0-0.3,0.1-0.6,0.4-0.9
		c0.2-0.2,0.6-0.4,0.9-0.4c0.3,0,0.6,0.1,0.9,0.4c0.2,0.2,0.4,0.6,0.4,0.9C24.4,13.2,24.2,13.5,24,13.8 M18,22.9
		c-2.7,0-4.9-2.2-4.9-4.9c0-2.7,2.2-4.9,4.9-4.9c2.7,0,4.9,2.2,4.9,4.9C22.9,20.7,20.7,22.9,18,22.9 M22.3,10.1h-8.6
		c-2,0-3.6,1.6-3.6,3.6v8.6c0,2,1.6,3.6,3.6,3.6h8.6c2,0,3.6-1.6,3.6-3.6v-8.6C25.9,11.7,24.3,10.1,22.3,10.1"/>
	<path class="st0" d="M18,14.8c-1.8,0-3.2,1.4-3.2,3.2s1.4,3.2,3.2,3.2c1.8,0,3.2-1.4,3.2-3.2S19.8,14.8,18,14.8"/>
	<path class="st0" d="M27.6,22.3c0,2.9-2.4,5.3-5.3,5.3h-8.6c-2.9,0-5.3-2.4-5.3-5.3v-8.6c0-2.9,2.4-5.3,5.3-5.3h8.6
		c2.9,0,5.3,2.4,5.3,5.3V22.3z M18,0C8.1,0,0,8.1,0,18s8.1,18,18,18s18-8.1,18-18S27.9,0,18,0"/>
</g>
</svg>
