<?xml version="1.0" encoding="utf-8"?>
<!-- Generator: Adobe Illustrator 21.1.0, SVG Export Plug-In . SVG Version: 6.00 Build 0)  -->
<svg version="1.1" id="Layer_1" xmlns="http://www.w3.org/2000/svg" xmlns:xlink="http://www.w3.org/1999/xlink" x="0px" y="0px"
	 viewBox="0 0 36 36" style="enable-background:new 0 0 36 36;" xml:space="preserve">
<style type="text/css">
	.st0{fill:#0457A4;}
	.st1{fill:#FFFFFF;}
</style>
<circle class="st0" cx="18" cy="18" r="18"/>
<g>
	<path class="st1" d="M12,7.8c1.2,0,2.2,1,2.2,2.2c0,1.3-1.1,2.2-2.2,2.2c-1.2,0-2.2-1-2.2-2.2C9.8,8.8,10.8,7.8,12,7.8L12,7.8z
		 M12,7.8"/>
	<path class="st1" d="M13.3,26.2h-2.6c-0.3,0-0.6-0.3-0.6-0.6V14.6c0-0.3,0.3-0.6,0.6-0.6h2.6c0.3,0,0.6,0.3,0.6,0.6v11.1
		C13.9,26,13.6,26.2,13.3,26.2L13.3,26.2z M13.3,26.2"/>
	<path class="st1" d="M28.2,17.8c0-2.3-1.9-4.2-4.2-4.2h-0.7c-1.3,0-2.4,0.6-3.1,1.6c-0.1,0.1-0.1,0.2-0.2,0.3c0,0,0,0,0,0v-1.4
		c0-0.1-0.1-0.3-0.3-0.3h-3.2c-0.1,0-0.3,0.1-0.3,0.3V26c0,0.1,0.1,0.3,0.3,0.3l3.3,0c0.1,0,0.3-0.1,0.3-0.3v-6.8
		c0-1.2,0.9-2.2,2.1-2.2c0.6,0,1.1,0.2,1.5,0.6c0.4,0.4,0.6,0.9,0.6,1.5V26c0,0.1,0.1,0.3,0.3,0.3l3.3,0c0.1,0,0.3-0.1,0.3-0.3
		L28.2,17.8L28.2,17.8z M28.2,17.8"/>
</g>
</svg>
